<?xml version="1.0" encoding="UTF-8"?>
<svg width="700pt" height="700pt" version="1.1" viewBox="0 0 700 700" xmlns="http://www.w3.org/2000/svg" xmlns:xlink="http://www.w3.org/1999/xlink">
 <defs>
  <symbol id="v" overflow="visible">
   <path d="m19.406-1.1562c-1 0.52344-2.043 0.91406-3.125 1.1719-1.0859 0.25781-2.2148 0.39062-3.3906 0.39062-3.5234 0-6.3125-0.97656-8.375-2.9375-2.0547-1.9688-3.0781-4.6328-3.0781-8 0-3.3828 1.0234-6.0547 3.0781-8.0156 2.0625-1.9688 4.8516-2.9531 8.375-2.9531 1.1758 0 2.3047 0.13672 3.3906 0.40625 1.082 0.26172 2.125 0.64844 3.125 1.1562v4.375c-1.0117-0.6875-2.0078-1.1875-2.9844-1.5-0.98047-0.32031-2.0117-0.48438-3.0938-0.48438-1.9492 0-3.4805 0.625-4.5938 1.875-1.1055 1.2422-1.6562 2.9531-1.6562 5.1406 0 2.1797 0.55078 3.8906 1.6562 5.1406 1.1133 1.2422 2.6445 1.8594 4.5938 1.8594 1.082 0 2.1133-0.16016 3.0938-0.48438 0.97656-0.32031 1.9727-0.82812 2.9844-1.5156z"/>
  </symbol>
  <symbol id="e" overflow="visible">
   <path d="m14.203-11.531c-0.44922-0.20703-0.89062-0.35938-1.3281-0.45312-0.4375-0.10156-0.875-0.15625-1.3125-0.15625-1.3047 0-2.3086 0.42188-3.0156 1.2656-0.69922 0.83594-1.0469 2.0273-1.0469 3.5781v7.2969h-5.0625v-15.844h5.0625v2.6094c0.64453-1.0391 1.3906-1.7969 2.2344-2.2656 0.84375-0.47656 1.8516-0.71875 3.0312-0.71875 0.17578 0 0.36328 0.007812 0.5625 0.015625 0.19531 0.011719 0.48438 0.042969 0.85938 0.09375z"/>
  </symbol>
  <symbol id="a" overflow="visible">
   <path d="m18.25-7.9688v1.4531h-11.844c0.125 1.1875 0.55078 2.0781 1.2812 2.6719 0.73828 0.59375 1.7695 0.89062 3.0938 0.89062 1.0625 0 2.1484-0.15625 3.2656-0.46875 1.125-0.32031 2.2734-0.80078 3.4531-1.4375v3.8906c-1.1992 0.46094-2.3984 0.80469-3.5938 1.0312-1.1992 0.22656-2.3984 0.34375-3.5938 0.34375-2.8672 0-5.0938-0.72266-6.6875-2.1719-1.5859-1.457-2.375-3.5039-2.375-6.1406 0-2.582 0.77344-4.6133 2.3281-6.0938 1.5625-1.4766 3.7109-2.2188 6.4531-2.2188 2.4883 0 4.4766 0.75 5.9688 2.25 1.5 1.5 2.25 3.5 2.25 6zm-5.2031-1.6719c0-0.96875-0.28125-1.7422-0.84375-2.3281-0.5625-0.59375-1.2969-0.89062-2.2031-0.89062-0.98047 0-1.7773 0.27734-2.3906 0.82812-0.61719 0.55469-0.99609 1.3516-1.1406 2.3906z"/>
  </symbol>
  <symbol id="f" overflow="visible">
   <path d="m9.5312-7.125c-1.0547 0-1.8516 0.18359-2.3906 0.54688-0.53125 0.35547-0.79688 0.88281-0.79688 1.5781 0 0.63672 0.21094 1.1367 0.64062 1.5 0.4375 0.36719 1.0352 0.54688 1.7969 0.54688 0.95703 0 1.7578-0.33594 2.4062-1.0156 0.65625-0.6875 0.98438-1.5469 0.98438-2.5781v-0.57812zm7.7344-1.9062v9.0312h-5.0938v-2.3438c-0.6875 0.96094-1.4609 1.6562-2.3125 2.0938-0.84375 0.4375-1.8711 0.65625-3.0781 0.65625-1.6484 0-2.9805-0.47656-4-1.4375-1.0234-0.95703-1.5312-2.1953-1.5312-3.7188 0-1.8633 0.63281-3.2266 1.9062-4.0938 1.2812-0.86328 3.2891-1.2969 6.0312-1.2969h2.9844v-0.39062c0-0.80078-0.32031-1.3906-0.95312-1.7656-0.63672-0.375-1.6211-0.5625-2.9531-0.5625-1.0859 0-2.0938 0.10938-3.0312 0.32812s-1.8086 0.54297-2.6094 0.96875v-3.8594c1.082-0.25781 2.1719-0.45703 3.2656-0.59375 1.1016-0.13281 2.2031-0.20312 3.2969-0.20312 2.8516 0 4.9102 0.5625 6.1719 1.6875 1.2695 1.125 1.9062 2.9609 1.9062 5.5z"/>
  </symbol>
  <symbol id="d" overflow="visible">
   <path d="m7.9688-20.344v4.5h5.2188v3.625h-5.2188v6.7188c0 0.73047 0.14453 1.2266 0.4375 1.4844 0.28906 0.26172 0.86719 0.39062 1.7344 0.39062h2.6094v3.625h-4.3438c-2 0-3.418-0.41406-4.25-1.25-0.83594-0.83203-1.25-2.25-1.25-4.25v-6.7188h-2.5312v-3.625h2.5312v-4.5z"/>
  </symbol>
  <symbol id="l" overflow="visible">
   <path d="m13.219-13.516v-8.5h5.0781v22.016h-5.0781v-2.2969c-0.69922 0.9375-1.4688 1.625-2.3125 2.0625-0.84375 0.42578-1.8203 0.64062-2.9219 0.64062-1.9492 0-3.5547-0.77344-4.8125-2.3281-1.25-1.5508-1.875-3.5469-1.875-5.9844 0-2.4453 0.625-4.4414 1.875-5.9844 1.2578-1.5508 2.8633-2.3281 4.8125-2.3281 1.0938 0 2.0625 0.21875 2.9062 0.65625 0.85156 0.4375 1.6289 1.1211 2.3281 2.0469zm-3.3438 10.25c1.082 0 1.9102-0.39453 2.4844-1.1875 0.57031-0.78906 0.85938-1.9414 0.85938-3.4531 0-1.5078-0.28906-2.6602-0.85938-3.4531-0.57422-0.78906-1.4023-1.1875-2.4844-1.1875-1.0742 0-1.8984 0.39844-2.4688 1.1875-0.57422 0.79297-0.85938 1.9453-0.85938 3.4531 0 1.5117 0.28516 2.6641 0.85938 3.4531 0.57031 0.79297 1.3945 1.1875 2.4688 1.1875z"/>
  </symbol>
  <symbol id="k" overflow="visible">
   <path d="m10.859-3.2656c1.082 0 1.9102-0.39453 2.4844-1.1875 0.57031-0.78906 0.85938-1.9414 0.85938-3.4531 0-1.5078-0.28906-2.6602-0.85938-3.4531-0.57422-0.78906-1.4023-1.1875-2.4844-1.1875-1.0859 0-1.918 0.40234-2.5 1.2031-0.57422 0.79297-0.85938 1.9375-0.85938 3.4375s0.28516 2.6523 0.85938 3.4531c0.58203 0.79297 1.4141 1.1875 2.5 1.1875zm-3.3594-10.25c0.69531-0.92578 1.4688-1.6094 2.3125-2.0469 0.85156-0.4375 1.832-0.65625 2.9375-0.65625 1.9453 0 3.5469 0.77734 4.7969 2.3281 1.2578 1.543 1.8906 3.5391 1.8906 5.9844 0 2.4375-0.63281 4.4336-1.8906 5.9844-1.25 1.5547-2.8516 2.3281-4.7969 2.3281-1.1055 0-2.0859-0.21875-2.9375-0.65625-0.84375-0.4375-1.6172-1.1172-2.3125-2.0469v2.2969h-5.0625v-22.016h5.0625z"/>
  </symbol>
  <symbol id="j" overflow="visible">
   <path d="m0.35938-15.844h5.0625l4.25 10.75 3.625-10.75h5.0625l-6.6562 17.344c-0.67969 1.7578-1.4648 2.9883-2.3594 3.6875-0.88672 0.70703-2.0586 1.0625-3.5156 1.0625h-2.9219v-3.3281h1.5781c0.85156 0 1.4727-0.13672 1.8594-0.40625 0.39453-0.27344 0.70312-0.76172 0.92188-1.4688l0.14062-0.4375z"/>
  </symbol>
  <symbol id="c" overflow="visible">
   <path d="m2.4375-22.016h5.0625v11.984l5.8281-5.8125h5.875l-7.7344 7.2656 8.3438 8.5781h-6.1406l-6.1719-6.6094v6.6094h-5.0625z"/>
  </symbol>
  <symbol id="i" overflow="visible">
   <path d="m2.4375-15.844h5.0625v15.844h-5.0625zm0-6.1719h5.0625v4.1406h-5.0625z"/>
  </symbol>
  <symbol id="h" overflow="visible">
   <path d="m17.109-13.219c0.64453-0.97656 1.4062-1.7227 2.2812-2.2344 0.88281-0.50781 1.8594-0.76562 2.9219-0.76562 1.8125 0 3.1914 0.5625 4.1406 1.6875 0.95703 1.1172 1.4375 2.7461 1.4375 4.8906v9.6406h-5.0938v-8.2656c0.007813-0.11328 0.015625-0.23828 0.015625-0.375 0.007812-0.13281 0.015625-0.32031 0.015625-0.5625 0-1.125-0.16797-1.9375-0.5-2.4375-0.32422-0.50781-0.85547-0.76562-1.5938-0.76562-0.96094 0-1.7031 0.39844-2.2344 1.1875-0.52344 0.79297-0.79297 1.9375-0.8125 3.4375v7.7812h-5.0781v-8.2656c0-1.75-0.15234-2.875-0.45312-3.375-0.30469-0.50781-0.84375-0.76562-1.625-0.76562-0.96875 0-1.7188 0.40234-2.25 1.2031-0.52344 0.79297-0.78125 1.9297-0.78125 3.4062v7.7969h-5.0938v-15.844h5.0938v2.3281c0.625-0.89453 1.3359-1.5664 2.1406-2.0156 0.80078-0.45703 1.6914-0.6875 2.6719-0.6875 1.0938 0 2.0547 0.26562 2.8906 0.79688 0.84375 0.52344 1.4766 1.2578 1.9062 2.2031z"/>
  </symbol>
  <symbol id="b" overflow="visible">
   <path d="m9.9688-12.609c-1.125 0-1.9844 0.40625-2.5781 1.2188-0.58594 0.80469-0.875 1.9648-0.875 3.4844 0 1.5234 0.28906 2.6875 0.875 3.5 0.59375 0.80469 1.4531 1.2031 2.5781 1.2031 1.1016 0 1.9453-0.39844 2.5312-1.2031 0.58203-0.8125 0.875-1.9766 0.875-3.5 0-1.5195-0.29297-2.6797-0.875-3.4844-0.58594-0.8125-1.4297-1.2188-2.5312-1.2188zm0-3.6094c2.7266 0 4.8594 0.73438 6.3906 2.2031s2.2969 3.5078 2.2969 6.1094c0 2.6055-0.76562 4.6406-2.2969 6.1094s-3.6641 2.2031-6.3906 2.2031c-2.7305 0-4.8672-0.73438-6.4062-2.2031-1.543-1.4688-2.3125-3.5039-2.3125-6.1094 0-2.6016 0.76953-4.6406 2.3125-6.1094 1.5391-1.4688 3.6758-2.2031 6.4062-2.2031z"/>
  </symbol>
  <symbol id="u" overflow="visible">
   <path d="m0.4375-15.844h5.0625l3.9531 10.953 3.9219-10.953h5.0781l-6.2344 15.844h-5.5625z"/>
  </symbol>
  <symbol id="t" overflow="visible">
   <path d="m2.4375-22.016h5.0625v22.016h-5.0625z"/>
  </symbol>
  <symbol id="g" overflow="visible">
   <path d="m15.234-15.344v4.125c-0.6875-0.46875-1.3828-0.81641-2.0781-1.0469-0.6875-0.22656-1.4062-0.34375-2.1562-0.34375-1.4062 0-2.5078 0.41797-3.2969 1.25-0.79297 0.82422-1.1875 1.9766-1.1875 3.4531 0 1.4805 0.39453 2.6367 1.1875 3.4688 0.78906 0.82422 1.8906 1.2344 3.2969 1.2344 0.78906 0 1.5391-0.11719 2.25-0.35938 0.71875-0.23828 1.3789-0.58594 1.9844-1.0469v4.1406c-0.79297 0.29297-1.6016 0.50781-2.4219 0.65625-0.8125 0.14453-1.625 0.21875-2.4375 0.21875-2.8672 0-5.1055-0.72656-6.7188-2.1875-1.6055-1.4688-2.4062-3.5078-2.4062-6.125 0-2.6133 0.80078-4.6484 2.4062-6.1094 1.6133-1.4688 3.8516-2.2031 6.7188-2.2031 0.82031 0 1.6328 0.074219 2.4375 0.21875 0.8125 0.14844 1.6172 0.36719 2.4219 0.65625z"/>
  </symbol>
  <symbol id="s" overflow="visible">
   <path d="m12.859-22.016v3.3281h-2.7969c-0.71875 0-1.2188 0.13281-1.5 0.39062-0.28125 0.26172-0.42188 0.71094-0.42188 1.3438v1.1094h4.3281v3.625h-4.3281v12.219h-5.0781v-12.219h-2.5156v-3.625h2.5156v-1.1094c0-1.7188 0.47656-2.9883 1.4375-3.8125 0.96875-0.83203 2.4609-1.25 4.4844-1.25z"/>
  </symbol>
  <symbol id="r" overflow="visible">
   <path d="m18.359-9.6406v9.6406h-5.0938v-7.3594c0-1.3828-0.03125-2.332-0.09375-2.8438-0.0625-0.51953-0.16797-0.90625-0.3125-1.1562-0.19922-0.33203-0.46875-0.58594-0.8125-0.76562-0.33594-0.1875-0.71875-0.28125-1.1562-0.28125-1.0547 0-1.8828 0.41406-2.4844 1.2344-0.60547 0.8125-0.90625 1.9375-0.90625 3.375v7.7969h-5.0625v-22.016h5.0625v8.5c0.75781-0.92578 1.5664-1.6094 2.4219-2.0469 0.86328-0.4375 1.8125-0.65625 2.8438-0.65625 1.832 0 3.2227 0.5625 4.1719 1.6875 0.94531 1.1172 1.4219 2.7461 1.4219 4.8906z"/>
  </symbol>
  <symbol id="q" overflow="visible">
   <path d="m2.6562-21.125h6.0781l7.6875 14.484v-14.484h5.1562v21.125h-6.0781l-7.6719-14.484v14.484h-5.1719z"/>
  </symbol>
  <symbol id="p" overflow="visible">
   <path d="m2.2656-6.1719v-9.6719h5.0938v1.5781c0 0.86719-0.007813 1.9492-0.015625 3.25-0.011719 1.293-0.015625 2.1523-0.015625 2.5781 0 1.2812 0.03125 2.2031 0.09375 2.7656 0.070313 0.55469 0.1875 0.96094 0.34375 1.2188 0.20703 0.33594 0.47656 0.58984 0.8125 0.76562 0.33203 0.17969 0.71875 0.26562 1.1562 0.26562 1.0508 0 1.8789-0.40625 2.4844-1.2188 0.60156-0.8125 0.90625-1.9375 0.90625-3.375v-7.8281h5.0625v15.844h-5.0625v-2.2969c-0.76172 0.92969-1.5703 1.6094-2.4219 2.0469-0.85547 0.4375-1.7969 0.65625-2.8281 0.65625-1.8242 0-3.2148-0.55469-4.1719-1.6719-0.96094-1.125-1.4375-2.7578-1.4375-4.9062z"/>
  </symbol>
  <symbol id="o" overflow="visible">
   <path d="m18.359-9.6406v9.6406h-5.0938v-7.3906c0-1.3633-0.03125-2.3008-0.09375-2.8125-0.0625-0.51953-0.16797-0.90625-0.3125-1.1562-0.19922-0.33203-0.46875-0.58594-0.8125-0.76562-0.33594-0.1875-0.71875-0.28125-1.1562-0.28125-1.0547 0-1.8828 0.41406-2.4844 1.2344-0.60547 0.8125-0.90625 1.9375-0.90625 3.375v7.7969h-5.0625v-15.844h5.0625v2.3281c0.75781-0.92578 1.5664-1.6094 2.4219-2.0469 0.86328-0.4375 1.8125-0.65625 2.8438-0.65625 1.832 0 3.2227 0.5625 4.1719 1.6875 0.94531 1.1172 1.4219 2.7461 1.4219 4.8906z"/>
  </symbol>
  <symbol id="n" overflow="visible">
   <path d="m2.6562-21.125h9.0469c2.6875 0 4.75 0.60156 6.1875 1.7969 1.4375 1.1875 2.1562 2.8867 2.1562 5.0938 0 2.2188-0.71875 3.9297-2.1562 5.125-1.4375 1.1875-3.5 1.7812-6.1875 1.7812h-3.5938v7.3281h-5.4531zm5.4531 3.9531v5.8906h3.0156c1.0508 0 1.8633-0.25391 2.4375-0.76562 0.57031-0.50781 0.85938-1.2383 0.85938-2.1875 0-0.9375-0.28906-1.6602-0.85938-2.1719-0.57422-0.50781-1.3867-0.76562-2.4375-0.76562z"/>
  </symbol>
  <symbol id="m" overflow="visible">
   <path d="m2.4375-15.844h5.0625v15.562c0 2.125-0.51172 3.7422-1.5312 4.8594-1.0234 1.1133-2.4961 1.6719-4.4219 1.6719h-2.5156v-3.3281h0.89062c0.95703 0 1.6133-0.21875 1.9688-0.65625 0.36328-0.42969 0.54688-1.2773 0.54688-2.5469zm0-6.1719h5.0625v4.1406h-5.0625z"/>
  </symbol>
 </defs>
 <g>
  <path d="m263.97 214.27c0 12.367-10.027 22.395-22.395 22.395s-22.395-10.027-22.395-22.395 10.027-22.395 22.395-22.395 22.395 10.027 22.395 22.395"/>
  <path d="m294.47 110.77c0 7.6758-6.2188 13.898-13.895 13.898s-13.898-6.2227-13.898-13.898c0-7.6719 6.2227-13.895 13.898-13.895s13.895 6.2227 13.895 13.895"/>
  <path d="m270.73 158.28c0 7.6719-6.2227 13.895-13.898 13.895-7.6719 0-13.895-6.2227-13.895-13.895 0-7.6758 6.2227-13.898 13.895-13.898 7.6758 0 13.898 6.2227 13.898 13.898"/>
  <path d="m318.22 170.14c0 7.6758-6.2227 13.895-13.895 13.895-7.6758 0-13.898-6.2188-13.898-13.895s6.2227-13.895 13.898-13.895c7.6719 0 13.895 6.2188 13.895 13.895"/>
  <path d="m208.98 285.89c-4.4258 0-8.5742-2.4805-10.613-6.5469l-24.324-48.5c-2.9414-5.8633-0.57812-13 5.293-15.941 5.8633-2.918 13.012-0.56641 15.93 5.293l20.105 40.074 154.45-37.051-1.0312-42.91c-0.070312-3.2031 1.1523-6.6133 3.3828-8.9023 2.2305-2.2891 5.293-3.8867 8.4961-3.8867h1.2578c0.60938 0 163.13-15.027 231.98-117.64 3.6445-5.4375 11-6.75 16.461-3.0938 5.457 3.6562 6.8945 11.109 3.2539 16.562-65.766 98-202.62 122.36-240.82 127.34l0.99609 41.527c0.12109 5.6016-3.668 10.531-9.0938 11.848l-172.95 41.492c-0.92969 0.21094-1.8555 0.33594-2.7734 0.33594z"/>
  <path d="m192.14 30.398 24.949 34.223 9.5938-7.0039-42.02-57.617-12.988 11.004-1.0312-0.16797c-0.070313 0.40625-0.082032 0.75781-0.13281 1.1523l-40.266 34.102 7.6797 9.0703 30.457-25.805c-8.3477 93.301 37.176 135.84 39.234 137.72l16.012-17.559c-1.7031-1.5664-39.18-37.582-31.488-119.12z"/>
  <path d="m622.49 393.75h-104.09c0.023437-0.60156 0.12109-1.2109 0.12109-1.8359 0-41.711-45.922-75.652-102.38-75.652-26.902 0-51.941 7.4883-70.809 20.875-10.93-13.133-26.934-20.875-44.359-20.875-21.426 0-40.457 11.633-50.625 29.992-10.953-4.1055-23.016-6.2383-35.539-6.2383-41.879 0-75.168 23.191-78.801 53.73l-71.633 0.003906v47.504h61.535l21.59 118.75h379.99l21.602-118.75h73.391l-0.003906-47.504zm-407.66-29.984c13.066 0 25.816 3.0977 35.918 8.7344l13.012 7.2656 4.1758-14.312c4.4375-15.219 17.719-25.445 33.059-25.445 13.191 0 25.047 7.6328 30.988 19.914l7.1836 14.922 11.824-11.598c14.84-14.551 39.191-23.258 65.168-23.258 42.617 0 78.629 23.777 78.629 51.895 0 0.63281-0.11719 1.2383-0.14453 1.8438h-159.83l-0.29688-0.60156-0.73438 0.60156h-173.46c4.3281-16.703 27.441-29.961 54.516-29.961z"/>
  <use x="64.378906" y="646.886719" xlink:href="#v"/>
  <use x="85.632812" y="646.886719" xlink:href="#e"/>
  <use x="99.917969" y="646.886719" xlink:href="#a"/>
  <use x="119.558594" y="646.886719" xlink:href="#f"/>
  <use x="139.105469" y="646.886719" xlink:href="#d"/>
  <use x="152.949219" y="646.886719" xlink:href="#a"/>
  <use x="172.59375" y="646.886719" xlink:href="#l"/>
  <use x="203.40625" y="646.886719" xlink:href="#k"/>
  <use x="224.140625" y="646.886719" xlink:href="#j"/>
  <use x="253.101562" y="646.886719" xlink:href="#c"/>
  <use x="272.363281" y="646.886719" xlink:href="#i"/>
  <use x="282.292969" y="646.886719" xlink:href="#h"/>
  <use x="322.554688" y="646.886719" xlink:href="#c"/>
  <use x="341.816406" y="646.886719" xlink:href="#b"/>
  <use x="361.714844" y="646.886719" xlink:href="#u"/>
  <use x="380.59375" y="646.886719" xlink:href="#f"/>
  <use x="400.136719" y="646.886719" xlink:href="#t"/>
  <use x="410.0625" y="646.886719" xlink:href="#i"/>
  <use x="419.992188" y="646.886719" xlink:href="#g"/>
  <use x="437.160156" y="646.886719" xlink:href="#c"/>
  <use x="64.378906" y="675.851562" xlink:href="#s"/>
  <use x="76.980469" y="675.851562" xlink:href="#e"/>
  <use x="91.261719" y="675.851562" xlink:href="#b"/>
  <use x="111.160156" y="675.851562" xlink:href="#h"/>
  <use x="151.421875" y="675.851562" xlink:href="#d"/>
  <use x="165.265625" y="675.851562" xlink:href="#r"/>
  <use x="185.886719" y="675.851562" xlink:href="#a"/>
  <use x="215.613281" y="675.851562" xlink:href="#q"/>
  <use x="239.851562" y="675.851562" xlink:href="#b"/>
  <use x="259.75" y="675.851562" xlink:href="#p"/>
  <use x="280.367188" y="675.851562" xlink:href="#o"/>
  <use x="311.070312" y="675.851562" xlink:href="#n"/>
  <use x="332.296875" y="675.851562" xlink:href="#e"/>
  <use x="346.582031" y="675.851562" xlink:href="#b"/>
  <use x="366.480469" y="675.851562" xlink:href="#m"/>
  <use x="376.40625" y="675.851562" xlink:href="#a"/>
  <use x="396.050781" y="675.851562" xlink:href="#g"/>
  <use x="413.21875" y="675.851562" xlink:href="#d"/>
 </g>
</svg>
