<?xml version="1.0" encoding="UTF-8"?>
<svg width="700pt" height="700pt" version="1.1" viewBox="0 0 700 700" xmlns="http://www.w3.org/2000/svg" xmlns:xlink="http://www.w3.org/1999/xlink">
 <defs>
  <symbol id="u" overflow="visible">
   <path d="m3.8125-0.23438c-0.19922 0.10547-0.40625 0.18359-0.625 0.23438-0.21094 0.050781-0.42969 0.078125-0.65625 0.078125-0.6875 0-1.2344-0.19141-1.6406-0.57812-0.40625-0.38281-0.60938-0.90625-0.60938-1.5625 0-0.66406 0.20312-1.1914 0.60938-1.5781 0.40625-0.38281 0.95312-0.57812 1.6406-0.57812 0.22656 0 0.44531 0.027344 0.65625 0.078125 0.21875 0.054687 0.42578 0.13281 0.625 0.23438v0.84375c-0.19922-0.125-0.39844-0.21875-0.59375-0.28125-0.1875-0.070312-0.39062-0.10938-0.60938-0.10938-0.375 0-0.67188 0.125-0.89062 0.375-0.21875 0.24219-0.32812 0.57812-0.32812 1.0156 0 0.42969 0.10938 0.76562 0.32812 1.0156 0.21875 0.24219 0.51562 0.35938 0.89062 0.35938 0.21875 0 0.42188-0.03125 0.60938-0.09375 0.19531-0.070312 0.39453-0.17188 0.59375-0.29688z"/>
  </symbol>
  <symbol id="c" overflow="visible">
   <path d="m2.7812-2.2656c-0.085938-0.039063-0.16797-0.066406-0.25-0.078125-0.085938-0.019531-0.17188-0.03125-0.26562-0.03125-0.25 0-0.44922 0.085938-0.59375 0.25-0.13672 0.15625-0.20312 0.38672-0.20312 0.6875v1.4375h-0.98438v-3.1094h0.98438v0.51562c0.125-0.20703 0.26953-0.35938 0.4375-0.45312 0.16406-0.09375 0.36328-0.14062 0.59375-0.14062 0.039062 0 0.078125 0.007812 0.10938 0.015625 0.039063 0 0.097656 0.007813 0.17188 0.015625z"/>
  </symbol>
  <symbol id="a" overflow="visible">
   <path d="m3.5781-1.5625v0.28125h-2.3125c0.019531 0.23047 0.10156 0.40625 0.25 0.53125 0.14453 0.11719 0.34375 0.17188 0.59375 0.17188 0.21875 0 0.4375-0.03125 0.65625-0.09375s0.44141-0.15625 0.67188-0.28125v0.76562c-0.24219 0.085938-0.48047 0.14844-0.71875 0.1875-0.23047 0.050781-0.46094 0.078125-0.6875 0.078125-0.5625 0-1-0.14062-1.3125-0.42188-0.3125-0.28906-0.46875-0.69141-0.46875-1.2031 0-0.50781 0.14844-0.91016 0.45312-1.2031 0.30078-0.28906 0.72266-0.4375 1.2656-0.4375 0.48828 0 0.87891 0.15234 1.1719 0.45312 0.28906 0.29297 0.4375 0.68359 0.4375 1.1719zm-1.0156-0.32812c0-0.1875-0.058594-0.33594-0.17188-0.45312-0.10547-0.125-0.24609-0.1875-0.42188-0.1875-0.19922 0-0.35938 0.058594-0.48438 0.17188-0.11719 0.10547-0.1875 0.26172-0.21875 0.46875z"/>
  </symbol>
  <symbol id="f" overflow="visible">
   <path d="m1.875-1.4062c-0.21094 0-0.36719 0.039062-0.46875 0.10938-0.10547 0.074219-0.15625 0.17969-0.15625 0.3125 0 0.125 0.039062 0.22656 0.125 0.29688 0.082031 0.074219 0.19531 0.10938 0.34375 0.10938 0.1875 0 0.34375-0.066406 0.46875-0.20312 0.13281-0.13281 0.20312-0.30078 0.20312-0.5v-0.125zm1.5156-0.375v1.7812h-1v-0.46875c-0.13672 0.19922-0.28906 0.33984-0.45312 0.42188-0.16797 0.082031-0.37109 0.125-0.60938 0.125-0.32422 0-0.58594-0.09375-0.78125-0.28125-0.19922-0.1875-0.29688-0.42969-0.29688-0.73438 0-0.36328 0.125-0.62891 0.375-0.79688 0.25-0.16406 0.64062-0.25 1.1719-0.25h0.59375v-0.078125c0-0.16406-0.0625-0.28516-0.1875-0.35938-0.125-0.070313-0.32031-0.10938-0.57812-0.10938-0.21875 0-0.42188 0.027344-0.60938 0.078125-0.17969 0.042969-0.34375 0.10547-0.5 0.1875v-0.76562c0.20703-0.050781 0.42188-0.085938 0.64062-0.10938 0.21875-0.03125 0.42969-0.046875 0.64062-0.046875 0.5625 0 0.96875 0.11719 1.2188 0.34375 0.25 0.21875 0.375 0.57422 0.375 1.0625z"/>
  </symbol>
  <symbol id="b" overflow="visible">
   <path d="m1.5625-4v0.89062h1.0312v0.70312h-1.0312v1.3281c0 0.14844 0.023438 0.24609 0.078125 0.29688 0.0625 0.042969 0.17578 0.0625 0.34375 0.0625h0.51562v0.71875h-0.84375c-0.39844 0-0.67969-0.078125-0.84375-0.23438-0.16797-0.16406-0.25-0.44531-0.25-0.84375v-1.3281h-0.48438v-0.70312h0.48438v-0.89062z"/>
  </symbol>
  <symbol id="k" overflow="visible">
   <path d="m2.5938-2.6562v-1.6719h1v4.3281h-1v-0.45312c-0.13672 0.1875-0.28906 0.32422-0.45312 0.40625-0.16797 0.082031-0.35938 0.125-0.57812 0.125-0.375 0-0.6875-0.14844-0.9375-0.45312-0.25-0.30078-0.375-0.69141-0.375-1.1719 0-0.47656 0.125-0.86719 0.375-1.1719 0.25-0.3125 0.5625-0.46875 0.9375-0.46875 0.21875 0 0.41016 0.046875 0.57812 0.14062 0.16406 0.085937 0.31641 0.21484 0.45312 0.39062zm-0.65625 2.0156c0.20703 0 0.36719-0.078125 0.48438-0.23438 0.11328-0.15625 0.17188-0.37891 0.17188-0.67188 0-0.30078-0.058594-0.53125-0.17188-0.6875-0.11719-0.15625-0.27734-0.23438-0.48438-0.23438-0.21094 0-0.37109 0.078125-0.48438 0.23438-0.11719 0.15625-0.17188 0.38672-0.17188 0.6875 0 0.29297 0.054688 0.51562 0.17188 0.67188 0.11328 0.15625 0.27344 0.23438 0.48438 0.23438z"/>
  </symbol>
  <symbol id="j" overflow="visible">
   <path d="m2.1406-0.64062c0.20703 0 0.36328-0.078125 0.46875-0.23438 0.11328-0.15625 0.17188-0.37891 0.17188-0.67188 0-0.30078-0.058594-0.53125-0.17188-0.6875-0.10547-0.15625-0.26172-0.23438-0.46875-0.23438-0.21875 0-0.38672 0.078125-0.5 0.23438-0.11719 0.15625-0.17188 0.38672-0.17188 0.6875 0 0.29297 0.054688 0.51562 0.17188 0.67188 0.11328 0.15625 0.28125 0.23438 0.5 0.23438zm-0.67188-2.0156c0.13281-0.17578 0.28516-0.30469 0.45312-0.39062 0.16406-0.09375 0.35938-0.14062 0.57812-0.14062 0.38281 0 0.69531 0.15625 0.9375 0.46875 0.25 0.30469 0.375 0.69531 0.375 1.1719 0 0.48047-0.125 0.87109-0.375 1.1719-0.24219 0.30469-0.55469 0.45312-0.9375 0.45312-0.21875 0-0.41406-0.042969-0.57812-0.125-0.16797-0.082031-0.32031-0.21875-0.45312-0.40625v0.45312h-0.98438v-4.3281h0.98438z"/>
  </symbol>
  <symbol id="e" overflow="visible">
   <path d="m0.0625-3.1094h1l0.84375 2.1094 0.70312-2.1094h1l-1.3125 3.4062c-0.13672 0.34375-0.29297 0.58203-0.46875 0.71875-0.16797 0.14453-0.39844 0.21875-0.6875 0.21875h-0.57812v-0.65625h0.3125c0.17578 0 0.30078-0.03125 0.375-0.09375 0.070312-0.054687 0.12891-0.14844 0.17188-0.28125l0.03125-0.078125z"/>
  </symbol>
  <symbol id="i" overflow="visible">
   <path d="m0.51562-4.1406h2.8906v0.79688h-1.8125v0.78125h1.7031v0.79688h-1.7031v0.95312h1.875v0.8125h-2.9531z"/>
  </symbol>
  <symbol id="h" overflow="visible">
   <path d="m0.4375-1.2031v-1.9062h1v0.3125 0.64062 0.5c0 0.25 0.003906 0.43359 0.015625 0.54688 0.019531 0.10547 0.046875 0.18359 0.078125 0.23438 0.03125 0.0625 0.078125 0.11719 0.14062 0.15625 0.070313 0.03125 0.14844 0.046875 0.23438 0.046875 0.20703 0 0.36719-0.078125 0.48438-0.23438 0.125-0.16406 0.1875-0.39062 0.1875-0.67188v-1.5312h1v3.1094h-1v-0.45312c-0.14844 0.1875-0.30859 0.32422-0.48438 0.40625-0.16797 0.082031-0.35156 0.125-0.54688 0.125-0.35547 0-0.63281-0.10938-0.82812-0.32812-0.1875-0.21875-0.28125-0.53516-0.28125-0.95312z"/>
  </symbol>
  <symbol id="g" overflow="visible">
   <path d="m2.9844-3.0156v0.8125c-0.13672-0.09375-0.27344-0.16016-0.40625-0.20312-0.13672-0.039062-0.27734-0.0625-0.42188-0.0625-0.27344 0-0.48438 0.085938-0.64062 0.25-0.15625 0.15625-0.23438 0.38281-0.23438 0.67188 0 0.29297 0.078125 0.52344 0.23438 0.6875 0.15625 0.15625 0.36719 0.23438 0.64062 0.23438 0.15625 0 0.30078-0.019531 0.4375-0.0625 0.14453-0.050781 0.27344-0.125 0.39062-0.21875v0.8125c-0.15625 0.0625-0.3125 0.10156-0.46875 0.125-0.15625 0.03125-0.32031 0.046875-0.48438 0.046875-0.5625 0-1-0.14062-1.3125-0.42188-0.3125-0.28906-0.46875-0.69141-0.46875-1.2031 0-0.51953 0.15625-0.92188 0.46875-1.2031 0.3125-0.28906 0.75-0.4375 1.3125-0.4375 0.16406 0 0.32812 0.015625 0.48438 0.046875s0.3125 0.074219 0.46875 0.125z"/>
  </symbol>
  <symbol id="t" overflow="visible">
   <path d="m0.48438-4.3281h0.98438v4.3281h-0.98438z"/>
  </symbol>
  <symbol id="s" overflow="visible">
   <path d="m1.4688-0.45312v1.6406h-0.98438v-4.2969h0.98438v0.45312c0.13281-0.17578 0.28516-0.30469 0.45312-0.39062 0.16406-0.09375 0.35938-0.14062 0.57812-0.14062 0.38281 0 0.69531 0.15625 0.9375 0.46875 0.25 0.30469 0.375 0.69531 0.375 1.1719 0 0.48047-0.125 0.87109-0.375 1.1719-0.24219 0.30469-0.55469 0.45312-0.9375 0.45312-0.21875 0-0.41406-0.042969-0.57812-0.125-0.16797-0.082031-0.32031-0.21875-0.45312-0.40625zm0.67188-2.0156c-0.21875 0-0.38672 0.078125-0.5 0.23438-0.11719 0.15625-0.17188 0.38672-0.17188 0.6875 0 0.29297 0.054688 0.51562 0.17188 0.67188 0.11328 0.15625 0.28125 0.23438 0.5 0.23438 0.20703 0 0.36328-0.078125 0.46875-0.23438 0.11328-0.15625 0.17188-0.37891 0.17188-0.67188 0-0.30078-0.058594-0.53125-0.17188-0.6875-0.10547-0.15625-0.26172-0.23438-0.46875-0.23438z"/>
  </symbol>
  <symbol id="r" overflow="visible">
   <path d="m2.5312-4.3281v0.65625h-0.5625c-0.13672 0-0.23438 0.027344-0.29688 0.078125-0.054687 0.054688-0.078125 0.14062-0.078125 0.26562v0.21875h0.85938v0.70312h-0.85938v2.4062h-0.98438v-2.4062h-0.5v-0.70312h0.5v-0.21875c0-0.33203 0.09375-0.58203 0.28125-0.75 0.1875-0.16406 0.47656-0.25 0.875-0.25z"/>
  </symbol>
  <symbol id="d" overflow="visible">
   <path d="m1.9531-2.4688c-0.21875 0-0.38672 0.078125-0.5 0.23438-0.11719 0.15625-0.17188 0.38672-0.17188 0.6875 0 0.29297 0.054688 0.52344 0.17188 0.6875 0.11328 0.15625 0.28125 0.23438 0.5 0.23438s0.38281-0.078125 0.5-0.23438c0.11328-0.16406 0.17188-0.39453 0.17188-0.6875 0-0.30078-0.058594-0.53125-0.17188-0.6875-0.11719-0.15625-0.28125-0.23438-0.5-0.23438zm0-0.71875c0.53906 0 0.95703 0.14844 1.25 0.4375 0.30078 0.29297 0.45312 0.69531 0.45312 1.2031 0 0.51172-0.15234 0.91406-0.45312 1.2031-0.29297 0.28125-0.71094 0.42188-1.25 0.42188-0.53125 0-0.94922-0.14062-1.25-0.42188-0.30469-0.28906-0.45312-0.69141-0.45312-1.2031 0-0.50781 0.14844-0.91016 0.45312-1.2031 0.30078-0.28906 0.71875-0.4375 1.25-0.4375z"/>
  </symbol>
  <symbol id="q" overflow="visible">
   <path d="m3.3594-2.5938c0.125-0.1875 0.26953-0.33203 0.4375-0.4375 0.17578-0.10156 0.36719-0.15625 0.57812-0.15625 0.36328 0 0.63281 0.10938 0.8125 0.32812 0.1875 0.21875 0.28125 0.54297 0.28125 0.96875v1.8906h-0.98438v-1.625-0.0625-0.125c0-0.21875-0.039063-0.375-0.10938-0.46875-0.0625-0.10156-0.16406-0.15625-0.29688-0.15625-0.19922 0-0.35156 0.078125-0.45312 0.23438-0.09375 0.15625-0.14844 0.38281-0.15625 0.67188v1.5312h-1v-1.625c0-0.34375-0.03125-0.5625-0.09375-0.65625-0.054688-0.10156-0.15625-0.15625-0.3125-0.15625-0.1875 0-0.33594 0.078125-0.4375 0.23438-0.10547 0.15625-0.15625 0.38281-0.15625 0.67188v1.5312h-1v-3.1094h1v0.45312c0.125-0.17578 0.26562-0.30469 0.42188-0.39062 0.15625-0.09375 0.33203-0.14062 0.53125-0.14062 0.20703 0 0.39453 0.054688 0.5625 0.15625 0.16406 0.10547 0.28906 0.25 0.375 0.4375z"/>
  </symbol>
  <symbol id="p" overflow="visible">
   <path d="m3.6094-1.8906v1.8906h-1v-1.4375c0-0.28125-0.011719-0.46875-0.03125-0.5625-0.011719-0.10156-0.027344-0.17969-0.046875-0.23438-0.042969-0.0625-0.10156-0.10938-0.17188-0.14062-0.0625-0.039062-0.13672-0.0625-0.21875-0.0625-0.21094 0-0.375 0.085938-0.5 0.25-0.11719 0.15625-0.17188 0.375-0.17188 0.65625v1.5312h-0.98438v-4.3281h0.98438v1.6719c0.15625-0.17578 0.31641-0.30469 0.48438-0.39062 0.16406-0.09375 0.34766-0.14062 0.54688-0.14062 0.36328 0 0.64062 0.10938 0.82812 0.32812s0.28125 0.54297 0.28125 0.96875z"/>
  </symbol>
  <symbol id="o" overflow="visible">
   <path d="m0.51562-4.1406h1.2031l1.5 2.8438v-2.8438h1.0156v4.1406h-1.1875l-1.5156-2.8438v2.8438h-1.0156z"/>
  </symbol>
  <symbol id="n" overflow="visible">
   <path d="m3.6094-1.8906v1.8906h-1v-1.4531c0-0.26953-0.011719-0.45312-0.03125-0.54688-0.011719-0.10156-0.027344-0.17969-0.046875-0.23438-0.042969-0.0625-0.10156-0.10938-0.17188-0.14062-0.0625-0.039062-0.13672-0.0625-0.21875-0.0625-0.21094 0-0.375 0.085938-0.5 0.25-0.11719 0.15625-0.17188 0.375-0.17188 0.65625v1.5312h-0.98438v-3.1094h0.98438v0.45312c0.15625-0.17578 0.31641-0.30469 0.48438-0.39062 0.16406-0.09375 0.34766-0.14062 0.54688-0.14062 0.36328 0 0.64062 0.10938 0.82812 0.32812s0.28125 0.54297 0.28125 0.96875z"/>
  </symbol>
  <symbol id="m" overflow="visible">
   <path d="m0.51562-4.1406h1.7812c0.53125 0 0.9375 0.12109 1.2188 0.35938 0.28125 0.23047 0.42188 0.55859 0.42188 0.98438 0 0.4375-0.14062 0.77734-0.42188 1.0156-0.28125 0.23047-0.6875 0.34375-1.2188 0.34375h-0.70312v1.4375h-1.0781zm1.0781 0.76562v1.1562h0.59375c0.20703 0 0.36328-0.046875 0.46875-0.14062 0.11328-0.10156 0.17188-0.25 0.17188-0.4375s-0.058594-0.32812-0.17188-0.42188c-0.10547-0.10156-0.26172-0.15625-0.46875-0.15625z"/>
  </symbol>
  <symbol id="l" overflow="visible">
   <path d="m0.48438-3.1094h0.98438v3.0469c0 0.41406-0.10156 0.73438-0.29688 0.95312-0.19922 0.22656-0.49219 0.34375-0.875 0.34375h-0.48438v-0.65625h0.17188c0.1875 0 0.31641-0.046875 0.39062-0.14062 0.070312-0.085938 0.10938-0.25 0.10938-0.5zm0-1.2188h0.98438v0.8125h-0.98438z"/>
  </symbol>
 </defs>
 <g>
  <path d="m613.97 478.08v27.309c0 5.0195-4.082 9.1016-9.1016 9.1016-5.0195 0-9.1016-4.082-9.1016-9.1016v-110c0-24.672-20.07-44.742-44.742-44.742-6.7656 0-13.422 1.5547-19.48 4.4883 0.33203-4.4883 0.50781-9.0195 0.50781-13.59 0-2.3008-0.058594-4.6211-0.14453-6.9336 7.3867-7.7539 12.414-17.828 13.828-29.125l2.9844-23.879c0.85547-6.8359 2.7812-13.457 5.7305-19.684l76.855-162.25-16.453-7.793-76.855 162.25c-3.7773 7.9766-6.25 16.457-7.3438 25.219l-2.9844 23.883c-2.082 16.656-16.309 29.215-33.094 29.215-10.844 0-20.742-5.1523-26.953-13.723l16.254-16.254-12.875-12.875-25.246 25.246c-4.8359 4.8359-11.723 6.9219-18.426 5.5781l-6.3125-1.2617c-9.5039-1.8984-16.402-10.312-16.402-20.008 0-5.4492 2.1211-10.574 5.9766-14.426l18.664-18.664-12.875-12.875-18.664 18.664c-3.6484 3.6484-6.4727 7.8945-8.3906 12.523l-11.461-3.8203c-6.8008-2.2656-12.309-7.043-15.516-13.453-3.207-6.4102-3.7227-13.684-1.457-20.484 3.1523-9.457 11.215-16.344 21.043-17.98 23.754-3.9609 44.578-18.016 57.137-38.562l82.535-135.06-15.531-9.4961-79.859 130.68c-19.91-9.168-41.52-14.695-63.492-16.238l50.117-105.8-16.453-7.793-53.66 113.29c-60.332 2.3828-113.2 34.258-144.57 81.586-1.8828-0.20703-3.7461-0.59375-5.5547-1.1953l-14.992-4.9961c-6.8008-2.2656-12.309-7.043-15.516-13.453-3.207-6.4102-3.7227-13.684-1.457-20.484 3.1523-9.457 11.215-16.344 21.043-17.98 23.754-3.9609 44.578-18.016 57.137-38.562l82.535-135.06-15.531-9.5-82.535 135.06c-9.8008 16.039-26.055 27.008-44.594 30.098-16.496 2.75-30.031 14.316-35.32 30.184-3.8047 11.414-2.9375 23.625 2.4414 34.383 0.62891 1.2578 1.3125 2.4727 2.0469 3.6523-6.1406 6.6172-11.293 14.039-15.359 22.172l16.285 8.1406c3.1172-6.2305 7.0273-11.945 11.652-17.082 3.4727 2.3984 7.3008 4.3281 11.422 5.7031l14.992 4.9961c0.51562 0.17188 1.0312 0.32812 1.5508 0.48438-13.066 25.082-20.457 53.566-20.457 83.746 0 26.785 5.8164 52.234 16.25 75.156l-81.977 46.844c-9.9883 5.7109-16.195 16.406-16.195 27.91 0 17.723 14.418 32.141 32.141 32.141h67.988c5.0195 0 9.1016 4.082 9.1016 9.1016 0 5.0195-4.082 9.1016-9.1016 9.1016l-118.34 0.003906v18.203h118.33c15.059 0 27.309-12.25 27.309-27.309s-12.25-27.309-27.309-27.309l-67.984 0.003907c-7.6836 0-13.938-6.2539-13.938-13.938 0-4.9883 2.6914-9.625 7.0234-12.102l81.32-46.469c31.57 54.199 90.309 90.711 157.43 90.711 87.891 0 161.43-62.605 178.38-145.56l8.9961-5.3984c4.125-2.4766 8.8438-3.7812 13.652-3.7812 14.633 0 26.539 11.906 26.539 26.539v110c0 15.059 12.25 27.309 27.309 27.309s27.309-12.25 27.309-27.309v-27.309zm-235.03-267.41c-16.496 2.75-30.031 14.316-35.32 30.184-3.8047 11.414-2.9375 23.625 2.4414 34.383 0.62891 1.2578 1.3125 2.4727 2.0469 3.6523-6.1367 6.6133-11.293 14.039-15.359 22.172l16.285 8.1406c3.1172-6.2305 7.0273-11.945 11.648-17.082 3.4727 2.4023 7.3047 4.3281 11.422 5.7031l14.461 4.8203c0.88281 9.6641 5.3828 18.445 12.238 24.812l-11.105 18.508 15.613 9.3672 11.391-18.984c0.89844 0.25 1.8086 0.47656 2.7383 0.66016l6.3125 1.2617c2.5312 0.50781 5.0781 0.75391 7.6055 0.75391 8.2773 0 16.34-2.6641 23.008-7.6328 6.9609 8.7109 16.516 14.848 27.277 17.602-4.0117 8.6211-10.316 16.023-18.359 21.383l10.098 15.148c12.797-8.5352 22.344-20.891 27.383-35.266 4.5234-0.54687 8.8789-1.6836 12.984-3.332-0.66797 20.625-5.1602 40.301-12.801 58.336l-41.723-0.003907c-0.99609 0-1.9883-0.023437-2.9805-0.035156 2.8594-4.3789 5.6094-8.8242 8.2305-13.344l-15.746-9.1406c-4.1992 7.2344-8.7383 14.285-13.586 21.137-6.832-0.78125-13.562-1.8906-20.18-3.3125 4.3242-5.7227 8.4414-11.625 12.316-17.727l-15.363-9.7656c-4.9531 7.7891-10.352 15.262-16.129 22.406-6.1914-1.9648-12.262-4.207-18.195-6.7188 5.668-6.6445 10.965-13.598 15.82-20.828l-15.113-10.148c-5.4297 8.0859-11.352 15.711-17.707 22.859-16.539-8.8359-31.766-19.82-45.289-32.605 5.5078-7.9648 10.629-16.18 15.328-24.629l-15.91-8.8477c-3.8242 6.8711-7.9453 13.582-12.34 20.121-4.2344-4.7773-8.2461-9.7539-12.035-14.91 26.426-41.391 41.23-90.07 41.422-141.05 5.9844-0.66406 12.059-1.0195 18.215-1.0195 22.848 0 44.781 4.5664 65.363 13.562-9.6016 10.184-22.344 17.07-36.406 19.414zm-192.79 130.87c0-6.0938 0.34766-12.109 0.99609-18.035 3.0195 6.4453 6.2539 12.773 9.7227 18.973-3.4023 2.6523-6.9023 5.207-10.492 7.6719-0.15234-2.8516-0.22656-5.7227-0.22656-8.6094zm18.5-75.566c4.8672 17.797 11.52 34.77 19.73 50.75-4.2344 4.7383-8.6914 9.3047-13.375 13.672-6.6641-12.281-12.402-25.086-17.203-38.375 2.875-9.0469 6.5195-17.754 10.848-26.047zm90.5-78.828c5.9844-2.1328 12.121-3.9297 18.398-5.3633-0.71875 43.516-12.867 85.137-34.281 121.26-3.7188-6.2383-7.1211-12.688-10.188-19.328 15.727-29.77 24.668-62.824 26.07-96.57zm-35.051 73.648c-5.0898-15.68-8.3945-32.184-9.6562-49.293 8.1016-6.2148 16.793-11.691 25.98-16.328-1.8789 22.965-7.4609 45.066-16.324 65.621zm8.293 59.008c-3.7344 5.2695-7.6797 10.398-11.828 15.367-3.6562-5.3164-7.1055-10.797-10.348-16.418 4.1953-5.293 8.1562-10.773 11.871-16.426 3.168 5.9648 6.6016 11.797 10.305 17.477zm114.43 90.473c-4.6367 4.8789-9.4688 9.5625-14.477 14.039-6.2617-2.4883-12.406-5.2188-18.41-8.1992 5.0469-4.2148 9.918-8.6484 14.59-13.281 5.9883 2.7539 12.094 5.2305 18.297 7.4414zm5.0781 20.867c4.9531-4.7852 9.707-9.7656 14.266-14.926 6.6797 1.7266 13.449 3.1562 20.297 4.2695-4.4961 5.457-9.2109 10.754-14.121 15.887-6.9219-1.457-13.738-3.2031-20.441-5.2305zm-55.121-24.41c-14.348-8.6016-27.77-18.633-40.055-29.926 4.0859-4.6055 8.0352-9.3203 11.82-14.148 13.195 12.25 27.609 22.777 42.961 31.465-4.7227 4.4453-9.6406 8.6445-14.727 12.609zm-53.012-42.75c-4.1797-4.4531-8.1914-9.0703-12.035-13.832 4.1172-4.7695 8.0625-9.6797 11.816-14.719 3.8047 4.8828 7.8203 9.625 12.043 14.219-3.7773 4.8945-7.7227 9.6719-11.824 14.332zm-35.715-14.926c-4.2461 4.3672-8.668 8.5781-13.25 12.637-3.6562-5.0078-7.1523-10.113-10.453-15.332 4.6133-4.1758 9.0703-8.5195 13.328-13.055 3.2773 5.3828 6.7344 10.641 10.375 15.75zm-37.77 9.0703c3.3125 5.1445 6.793 10.191 10.43 15.137-7.4766 5.6914-15.324 10.984-23.516 15.848-1.8516-6.0977-3.3672-12.344-4.5039-18.715 6.0586-3.8125 11.926-7.9102 17.59-12.27zm-6.707 48.352c9.9258-5.7227 19.391-12.035 28.359-18.875 3.8789 4.6562 7.9062 9.2227 12.09 13.676-10.262 7.9375-21.035 15.137-32.25 21.562-3.0273-5.2773-5.7617-10.742-8.1992-16.363zm42.445-30.406c4.5586-4 8.9648-8.1484 13.215-12.43 3.8594 4.6875 7.8828 9.2344 12.047 13.637-4.2812 4.2812-8.6914 8.4023-13.211 12.383-4.1797-4.418-8.1875-8.9609-12.051-13.59zm38.195 14.027c0.011719-0.011718 0.023438-0.023437 0.03125-0.035156 11.281 10.387 23.453 19.789 36.387 28.078-5.7148 3.6406-11.602 6.9961-17.641 10.059-11.195-7.7344-21.871-16.324-31.949-25.703 4.5-3.9922 8.8945-8.125 13.172-12.398zm40.879 46.578c4.375-2.625 8.6562-5.4219 12.852-8.3438 6.0352 3.25 12.199 6.2812 18.496 9.0664-5.6016 4.2344-11.379 8.2344-17.316 11.98-6.332-3.1055-12.559-6.4375-18.652-10.02 1.5469-0.87891 3.0898-1.7656 4.6211-2.6836zm-4.8047 23.465c-16.953 8.7266-34.918 15.492-53.523 20.035-6.9023-4.3555-13.457-9.2109-19.613-14.516 18.812-3.2227 36.969-8.7852 54.316-16.621 6.1445 3.9336 12.422 7.6367 18.82 11.102zm20.051 9.9258c6.9141 3.1016 13.949 5.9375 21.082 8.5039-13.672 8.8594-28.086 16.504-43.172 22.879-9.707-2.168-19.094-5.1914-28.07-9 17.469-5.6797 34.234-13.156 50.16-22.383zm18.652-11.883c0.75391-0.52344 1.5117-1.0352 2.2578-1.5664 5.1289-3.6523 10.109-7.4688 14.934-11.445 6.7617 2.3594 13.645 4.4414 20.629 6.25-5.4922 4.9453-11.148 9.6445-16.957 14.113-7.0508-2.1758-14.012-4.6289-20.863-7.3516zm59.449-2.1172c14.59 2.4961 29.547 3.8047 44.773 3.8047h3.9805c-6.7617 6.4727-14.078 12.375-21.867 17.625-14.781-0.92188-29.371-2.9922-43.656-6.1719 5.7539-4.8555 11.344-9.9414 16.77-15.258zm44.777-14.398c-9.9336 0-19.746-0.60547-29.406-1.7617 4.8516-5.5 9.4922-11.164 13.918-16.977 5.1367 0.34766 10.301 0.53125 15.488 0.53125h32.621c-3.6836 6.3516-7.7812 12.43-12.254 18.203zm-225.53-215.42c2.6211 19.617 7.7656 38.648 15.254 56.695-3.6484 6.2695-7.6484 12.34-11.949 18.203-8.418-17.805-14.781-36.852-18.773-56.871 4.7227-6.3789 9.8945-12.406 15.469-18.027zm-15.965 211.88c12.281-7.0938 24.051-15.07 35.242-23.859 8.5273 8.0586 17.473 15.57 26.781 22.52-16.801 6.4727-34.539 10.789-52.863 12.754-3.2188-3.668-6.2734-7.4727-9.1602-11.414zm130.27 67.234c10.891-5.9375 21.387-12.547 31.473-19.812 11.031 3.0312 22.258 5.4336 33.633 7.1914-19.434 8.1406-40.754 12.648-63.109 12.648-0.66797 0-1.332-0.019531-1.9961-0.027344z"/>
  <use x="67.820312" y="577.066406" xlink:href="#u"/>
  <use x="71.996094" y="577.066406" xlink:href="#c"/>
  <use x="74.804688" y="577.066406" xlink:href="#a"/>
  <use x="78.660156" y="577.066406" xlink:href="#f"/>
  <use x="82.5" y="577.066406" xlink:href="#b"/>
  <use x="85.21875" y="577.066406" xlink:href="#a"/>
  <use x="89.078125" y="577.066406" xlink:href="#k"/>
  <use x="95.132812" y="577.066406" xlink:href="#j"/>
  <use x="99.203125" y="577.066406" xlink:href="#e"/>
  <use x="104.894531" y="577.066406" xlink:href="#i"/>
  <use x="108.777344" y="577.066406" xlink:href="#h"/>
  <use x="112.828125" y="577.066406" xlink:href="#g"/>
  <use x="116.203125" y="577.066406" xlink:href="#f"/>
  <use x="120.039062" y="577.066406" xlink:href="#t"/>
  <use x="121.992188" y="577.066406" xlink:href="#e"/>
  <use x="125.699219" y="577.066406" xlink:href="#s"/>
  <use x="67.820312" y="582.757812" xlink:href="#r"/>
  <use x="70.296875" y="582.757812" xlink:href="#c"/>
  <use x="73.101562" y="582.757812" xlink:href="#d"/>
  <use x="77.011719" y="582.757812" xlink:href="#q"/>
  <use x="84.921875" y="582.757812" xlink:href="#b"/>
  <use x="87.640625" y="582.757812" xlink:href="#p"/>
  <use x="91.691406" y="582.757812" xlink:href="#a"/>
  <use x="97.527344" y="582.757812" xlink:href="#o"/>
  <use x="102.289062" y="582.757812" xlink:href="#d"/>
  <use x="106.199219" y="582.757812" xlink:href="#h"/>
  <use x="110.25" y="582.757812" xlink:href="#n"/>
  <use x="116.28125" y="582.757812" xlink:href="#m"/>
  <use x="120.449219" y="582.757812" xlink:href="#c"/>
  <use x="123.253906" y="582.757812" xlink:href="#d"/>
  <use x="127.164062" y="582.757812" xlink:href="#l"/>
  <use x="129.113281" y="582.757812" xlink:href="#a"/>
  <use x="132.972656" y="582.757812" xlink:href="#g"/>
  <use x="136.34375" y="582.757812" xlink:href="#b"/>
 </g>
</svg>
